<svg width="640" height="480" viewBox="0 0 640 480" fill="none" xmlns="http://www.w3.org/2000/svg">
<path d="M633.806 3.96642e-05L6.19357 3.75834e-05C-0.151658 3.75834e-05 1.05323e-05 0 1.05323e-05 0C0.0105804 0.633303 3.74505e-05 5.71998 3.74505e-05 6.54538V466.364C3.74505e-05 473.895 5.777 480 12.9033 480H627.096C634.223 480 640 473.895 640 466.364V7.09085C640 6.03197 639.988 0.767121 640 2.74398e-05L633.806 3.96642e-05Z" fill="#2A75E6"/>
<path d="M2.09045e-05 240H640V466.364C640 469.98 640 475.636 640 480C636.387 480 630.519 480 627.096 480H12.9032C9.48109 480 3.09674 480 2.435e-05 480C-2.83497e-05 478.909 2.09045e-05 469.98 2.09045e-05 466.364V240Z" fill="#F9D549"/>
</svg>
